<?xml version="1.0" encoding="utf-8"?>
<!-- Generator: Adobe Illustrator 19.2.1, SVG Export Plug-In . SVG Version: 6.00 Build 0)  -->
<svg version="1.1" id="layer" xmlns="http://www.w3.org/2000/svg" xmlns:xlink="http://www.w3.org/1999/xlink" x="0px" y="0px"
	 viewBox="0 0 652 652" style="enable-background:new 0 0 652 652;" xml:space="preserve">
<style type="text/css">
	.st0{fill:#FDA90F;}
</style>
<g id="Layer_2">
	<g id="logo">
		<path class="st0" d="M302.5,392L287,365.2v-84h-9.1l24.7-31.6V392z M338.5,249.6l-24.7,31.6h9.1v110.7l15.6-26.7L338.5,249.6z
			 M272.7,335.9l-4.1,9.2c-0.1,0.3-0.4,0.5-0.7,0.5h-32.2l3.8-3.8v-48.6l-3.8-3.8h18.7l-3.8,3.8v46.1h13.9L272.7,335.9z
			 M234.6,345.6h-17.3l0,0l2.9-3.1l-3.2-10.9h-12.9l-3.3,11l3,3h-17.3l4.7-4.6l13.9-47.9l-3.3-3.8h18l-3.6,3.8l13.7,47.8
			L234.6,345.6L234.6,345.6z M215.5,325.4l-5-17.4l-5,17.3L215.5,325.4z M180.7,295.6h11.1l4.5,3.3l-2.3-8.6c-0.1-0.5-0.5-0.8-1-0.8
			h-36c-0.5,0-0.9,0.4-1,0.8l-2.3,8.6l4.5-3.3h11.1v46.2l-3.8,3.8h19l-3.8-3.8V295.6z M155.5,341l4.7,4.6h-13.4
			c-1.9-2.9-12.7-23.1-12.7-23.1h-4.5c0,0,0,19.2,0,19.3l3.8,3.8h-18.8l3.8-3.8c0-0.1,0-48.6,0-48.6l-3.8-3.8h29.9
			c4.5,0,5.7,2.5,5.7,4.5v23.1c-0.2,2.9-2.6,5.1-5.5,5.1C144.7,322.4,155.5,341,155.5,341z M139.2,297.5c0-1.1-1-1.9-2.1-1.9
			c-0.1,0-0.1,0-0.2,0l-7.5,0v20.5h7.9c1.5,0,1.7-0.8,1.7-1.5L139.2,297.5z M111.6,293.8v47.5c0,2.3-1.3,4.2-6.1,4.2H81.2
			c-3.1,0-5.8-1.5-5.8-4.2v-47.5c0-2.3,1-4.5,6.1-4.5h24.2C109.1,289.3,111.6,290.8,111.6,293.8z M100.5,339.3v-40.2
			c0-2.4-1-3.5-2.3-3.5H86.9V336c0,2.1,1.1,3.3,2.3,3.3H100.5z M72,345.5L72,345.5l-3.8-3.8c0-0.1,0-47.1,0-48.6l0,0l3.8-3.8H57.2
			c-0.3,0-0.5,0.2-0.5,0.4c-0.9,3.9-10.7,33.5-10.7,33.5s-10.1-29.7-11.1-33.6c-0.1-0.2-0.3-0.4-0.5-0.4H20.2l3.8,3.8l0,0
			c0,2.8,0,48.5,0,48.7l-3.8,3.8H39l-3.8-3.8c0-0.2,0-26.2,0-26.2l10.7,30l10.6-30c0,0,0,26.1,0,26.2l-3.8,3.8L72,345.5L72,345.5z
			 M603,295.6h11.1l4.5,3.3l-2.3-8.6c-0.1-0.5-0.5-0.8-1-0.8h-36c-0.5,0-0.9,0.4-1,0.8l-2.3,8.6l4.5-3.3h11.1v46.2l-3.8,3.8h19.1
			l-3.8-3.8L603,295.6z M584.1,345.5h-17.3l2.9-3.1l-3.2-10.9h-12.9l-3.3,11l3,3h-17.4l4.7-4.6l13.9-47.8l-3.3-3.8h18l-3.6,3.8
			l13.7,47.8L584.1,345.5L584.1,345.5z M565,325.4l-5-17.3l-5,17.3L565,325.4z M531.5,314c0.8,0,3.2,1.2,3.2,3.2v23.2
			c0.1,2.8-2.1,5-4.9,5.1c-0.1,0-0.2,0-0.3,0h-32.4l3.8-3.8v-48.6l0,0l-3.8-3.8h32.4c2.5,0,4.7,1.9,5.2,4.4v16.4
			C534.6,312,533.3,313.6,531.5,314L531.5,314z M521.2,295.5h-9.1v17h8.8c1.1,0.1,2-0.7,2.1-1.8c0,0,0-0.1,0-0.1v-13
			C523.1,296.1,522.5,295.6,521.2,295.5L521.2,295.5z M523.3,320.7c0-1.2-1-2.1-2.2-2.1c-0.1,0-0.1,0-0.2,0h-8.8v20.6h9.3
			c1,0,1.9-0.8,1.9-1.9L523.3,320.7z M493.7,345.6L493.7,345.6l-3.8-3.8c0,0,0-47.1,0-48.6l0,0l3.8-3.8h-14.8
			c-0.3,0-0.5,0.2-0.6,0.4c-0.9,3.9-10.7,33.5-10.7,33.5s-10.2-29.7-11.1-33.6c-0.1-0.2-0.3-0.4-0.5-0.4h-14.2l3.8,3.8l0,0l0,0l0,0
			c0,2.7,0,48.6,0,48.6l-3.8,3.8h18.8l-3.8-3.8v-26.4l10.8,30.3l10.5-30.3v26.4l-3.8,3.8h19.3L493.7,345.6z M438,293.8v47.5
			c0,2.3-1.3,4.2-6.1,4.2h-24.2c-3.1,0-5.8-1.5-5.8-4.2v-47.5c0-2.3,1-4.5,6.1-4.5h24.2C435.5,289.3,438,290.8,438,293.8z
			 M426.9,339.3v-40.2c0-2.4-1-3.5-2.3-3.5h-11.3V336c0,2.1,1.1,3.3,2.3,3.3H426.9z M391.5,293.8l6.9-4.5h-19.8l2.5,3.8l-13.4,20.3
			v-20.3l3.8-3.8h-18.6l3.8,3.8v48.6l-3.8,3.8h18.6l-3.8-3.8V330l4.2-6.4c0,0,11,18.5,13,21.9h14.1l-5.2-4.6L378,314.3L391.5,293.8z
			 M610.6,340.6h1.6v5h0.6v-5h1.6v-0.5h-3.8L610.6,340.6z M617.9,344l-1.9-4h-0.6v5.7h0.6v-4.3l1.5,3.4h0.5l1.5-3.4v4.2h0.6v-5.5
			h-0.6L617.9,344z"/>
	</g>
</g>
</svg>
